# xmcd
#
# Track frame offsets:
#	150
#	17868
#	32530
#	49614
#	64684
#	81703
#	94690
#	110746
#	124252
#	140559
#	157786
#	175620
#	191956
#	205433
#
# Disc length: 2929
#
# Revision: 1
# Processed by: cddbd v1.5.1PL0 Copyright (c) Steve Scherf et al.
# Submitted via: VisiTrax 2.9.5.180 - For more info visit www.synapsa.com
# Normalized: r0:DSETVAR1
#
DISCID=c50b6f0e
DTITLE=Various Artist - CDX 287 March 2002
DYEAR=2002
DGENRE=
TTITLE0=George Jones - 50.000 names
TTITLE1=Chris LeDoux - Bareback Jack
TTITLE2=Brett James - Chasin' Amy
TTITLE3=Jenai - Cool me down
TTITLE4=Montgomery Gentry - Didn't I
TTITLE5=Little Big Town - Don't waste my time
TTITLE6=Darryl Worley - I miss my friend
TTITLE7=Hometown News - Minivan
TTITLE8=Confederate railroad - She treats her body like a temple
TTITLE9=Jameson Clark - Still smokin'
TTITLE10=Joe Diffie - This pretender
TTITLE11=Beth Profitt - One more try
TTITLE12=Shelley Lane - That girl doesn't live here anymore
TTITLE13=Bobby Seals - The time machine
EXTD=
EXTT0=
EXTT1=
EXTT2=
EXTT3=
EXTT4=
EXTT5=
EXTT6=
EXTT7=
EXTT8=
EXTT9=
EXTT10=
EXTT11=
EXTT12=
EXTT13=
PLAYORDER=
